<mxfile host="Electron" agent="Mozilla/5.0 (Windows NT 10.0; Win64; x64) AppleWebKit/537.36 (KHTML, like Gecko) draw.io/27.0.5 Chrome/134.0.6998.205 Electron/35.3.0 Safari/537.36" version="27.0.5">
  <diagram name="Page-1" id="QAqDR7Ux-MVTh5-r0Mpi">
    <mxGraphModel dx="1042" dy="626" grid="0" gridSize="10" guides="1" tooltips="1" connect="1" arrows="1" fold="1" page="1" pageScale="1" pageWidth="850" pageHeight="1100" math="0" shadow="0">
      <root>
        <mxCell id="0" />
        <mxCell id="1" parent="0" />
        <mxCell id="bZ3s_pzUmxYfD5p0n4Xe-1" value="" style="rounded=1;whiteSpace=wrap;html=1;strokeWidth=2;" parent="1" vertex="1">
          <mxGeometry x="98" y="96" width="340" height="400" as="geometry" />
        </mxCell>
        <mxCell id="bZ3s_pzUmxYfD5p0n4Xe-2" value="&lt;b&gt;&lt;font style=&quot;font-size: 15px;&quot;&gt;PLATINE&lt;/font&gt;&lt;/b&gt;" style="text;html=1;align=center;verticalAlign=middle;whiteSpace=wrap;rounded=0;" parent="1" vertex="1">
          <mxGeometry x="140" y="70" width="60" height="20" as="geometry" />
        </mxCell>
        <mxCell id="bZ3s_pzUmxYfD5p0n4Xe-3" value="INT&lt;div&gt;DIF&lt;/div&gt;" style="rounded=1;whiteSpace=wrap;html=1;strokeWidth=2;" parent="1" vertex="1">
          <mxGeometry x="130" y="150" width="50" height="50" as="geometry" />
        </mxCell>
        <mxCell id="bZ3s_pzUmxYfD5p0n4Xe-13" value="BARR" style="rounded=1;whiteSpace=wrap;html=1;strokeWidth=2;" parent="1" vertex="1">
          <mxGeometry x="190" y="157.5" width="40" height="35" as="geometry" />
        </mxCell>
        <mxCell id="bZ3s_pzUmxYfD5p0n4Xe-14" value="DISJ1" style="rounded=1;whiteSpace=wrap;html=1;strokeWidth=2;" parent="1" vertex="1">
          <mxGeometry x="240" y="160" width="40" height="30" as="geometry" />
        </mxCell>
        <mxCell id="bZ3s_pzUmxYfD5p0n4Xe-15" value="DISJ2" style="rounded=1;whiteSpace=wrap;html=1;strokeWidth=2;" parent="1" vertex="1">
          <mxGeometry x="290" y="160" width="40" height="30" as="geometry" />
        </mxCell>
        <mxCell id="bZ3s_pzUmxYfD5p0n4Xe-16" value="F.A" style="rounded=1;whiteSpace=wrap;html=1;strokeWidth=2;" parent="1" vertex="1">
          <mxGeometry x="340" y="152.5" width="40" height="40" as="geometry" />
        </mxCell>
        <mxCell id="bZ3s_pzUmxYfD5p0n4Xe-17" value="FUZ" style="rounded=1;whiteSpace=wrap;html=1;strokeWidth=2;" parent="1" vertex="1">
          <mxGeometry x="390" y="148.75" width="40" height="47.5" as="geometry" />
        </mxCell>
        <mxCell id="bZ3s_pzUmxYfD5p0n4Xe-18" value="&lt;h1 style=&quot;margin-top: 0px;&quot;&gt;Disj.1&lt;/h1&gt;&lt;p&gt;Fonte de Alimentação&lt;/p&gt;" style="text;html=1;whiteSpace=wrap;overflow=hidden;rounded=0;" parent="1" vertex="1">
          <mxGeometry x="540" y="115" width="180" height="120" as="geometry" />
        </mxCell>
        <mxCell id="bZ3s_pzUmxYfD5p0n4Xe-19" value="&lt;h1 style=&quot;margin-top: 0px;&quot;&gt;Disj.2&lt;/h1&gt;&lt;p&gt;Variador de Velocidade&lt;/p&gt;" style="text;html=1;whiteSpace=wrap;overflow=hidden;rounded=0;" parent="1" vertex="1">
          <mxGeometry x="540" y="240" width="180" height="120" as="geometry" />
        </mxCell>
        <mxCell id="bZ3s_pzUmxYfD5p0n4Xe-20" value="PLCS" style="rounded=1;whiteSpace=wrap;html=1;strokeWidth=2;" parent="1" vertex="1">
          <mxGeometry x="130" y="230" width="50" height="40" as="geometry" />
        </mxCell>
        <mxCell id="bZ3s_pzUmxYfD5p0n4Xe-21" value="RELÉS" style="rounded=1;whiteSpace=wrap;html=1;strokeWidth=2;" parent="1" vertex="1">
          <mxGeometry x="190" y="230" width="50" height="40" as="geometry" />
        </mxCell>
        <mxCell id="bZ3s_pzUmxYfD5p0n4Xe-22" value="RELÉS&lt;div&gt;SEG&lt;/div&gt;" style="rounded=1;whiteSpace=wrap;html=1;strokeWidth=2;" parent="1" vertex="1">
          <mxGeometry x="250" y="230" width="50" height="40" as="geometry" />
        </mxCell>
        <mxCell id="bZ3s_pzUmxYfD5p0n4Xe-23" value="CONT.1" style="rounded=1;whiteSpace=wrap;html=1;strokeWidth=2;" parent="1" vertex="1">
          <mxGeometry x="125" y="300" width="60" height="50" as="geometry" />
        </mxCell>
        <mxCell id="bZ3s_pzUmxYfD5p0n4Xe-24" value="CONT.2" style="rounded=1;whiteSpace=wrap;html=1;strokeWidth=2;" parent="1" vertex="1">
          <mxGeometry x="190" y="300" width="60" height="50" as="geometry" />
        </mxCell>
        <mxCell id="bZ3s_pzUmxYfD5p0n4Xe-25" value="CONT.3" style="rounded=1;whiteSpace=wrap;html=1;strokeWidth=2;" parent="1" vertex="1">
          <mxGeometry x="260" y="300" width="60" height="50" as="geometry" />
        </mxCell>
        <mxCell id="bZ3s_pzUmxYfD5p0n4Xe-26" value="VAR.&lt;div&gt;VELOC.&lt;/div&gt;" style="rounded=1;whiteSpace=wrap;html=1;strokeWidth=2;" parent="1" vertex="1">
          <mxGeometry x="370" y="300" width="60" height="50" as="geometry" />
        </mxCell>
        <mxCell id="bZ3s_pzUmxYfD5p0n4Xe-27" value="" style="rounded=1;whiteSpace=wrap;html=1;" parent="1" vertex="1">
          <mxGeometry x="125" y="380" width="155" height="40" as="geometry" />
        </mxCell>
        <mxCell id="bZ3s_pzUmxYfD5p0n4Xe-28" value="conjunto de borns" style="text;html=1;align=center;verticalAlign=middle;whiteSpace=wrap;rounded=0;" parent="1" vertex="1">
          <mxGeometry x="120" y="360" width="110" height="30" as="geometry" />
        </mxCell>
        <mxCell id="bZ3s_pzUmxYfD5p0n4Xe-29" value="in&lt;div&gt;alimen.&lt;/div&gt;" style="rounded=1;whiteSpace=wrap;html=1;" parent="1" vertex="1">
          <mxGeometry x="130" y="385" width="40" height="30" as="geometry" />
        </mxCell>
        <mxCell id="bZ3s_pzUmxYfD5p0n4Xe-31" value="out&lt;br&gt;&lt;div&gt;motor&lt;/div&gt;" style="rounded=1;whiteSpace=wrap;html=1;" parent="1" vertex="1">
          <mxGeometry x="177.5" y="385" width="40" height="30" as="geometry" />
        </mxCell>
        <mxCell id="bZ3s_pzUmxYfD5p0n4Xe-32" value="Barr&lt;div&gt;24v&lt;/div&gt;" style="rounded=1;whiteSpace=wrap;html=1;" parent="1" vertex="1">
          <mxGeometry x="230" y="385" width="40" height="30" as="geometry" />
        </mxCell>
        <mxCell id="bZ3s_pzUmxYfD5p0n4Xe-41" value="" style="rounded=1;whiteSpace=wrap;html=1;direction=south;" parent="1" vertex="1">
          <mxGeometry x="440" y="147.5" width="10" height="55" as="geometry" />
        </mxCell>
        <mxCell id="bZ3s_pzUmxYfD5p0n4Xe-42" value="" style="endArrow=none;dashed=1;html=1;dashPattern=1 3;strokeWidth=2;rounded=0;" parent="1" edge="1">
          <mxGeometry width="50" height="50" relative="1" as="geometry">
            <mxPoint x="444.58" y="192.5" as="sourcePoint" />
            <mxPoint x="444.58" y="152.5" as="targetPoint" />
          </mxGeometry>
        </mxCell>
        <mxCell id="bZ3s_pzUmxYfD5p0n4Xe-47" value="&lt;b&gt;Cabo 3g 2.5&lt;/b&gt;&lt;div&gt;&lt;b&gt;c/3m&lt;/b&gt;&lt;/div&gt;" style="text;html=1;align=center;verticalAlign=middle;whiteSpace=wrap;rounded=0;" parent="1" vertex="1">
          <mxGeometry x="395" y="658" width="80" height="50" as="geometry" />
        </mxCell>
        <mxCell id="bZ3s_pzUmxYfD5p0n4Xe-48" value="&lt;b&gt;Cabo ou fio condutor: 0,75 ou 1mm&lt;/b&gt;" style="text;html=1;align=center;verticalAlign=middle;whiteSpace=wrap;rounded=0;" parent="1" vertex="1">
          <mxGeometry x="30" y="632.5" width="150" height="57.5" as="geometry" />
        </mxCell>
        <mxCell id="bZ3s_pzUmxYfD5p0n4Xe-49" value="&lt;b&gt;Entrada PLC: Vermelho&lt;/b&gt;" style="text;html=1;align=center;verticalAlign=middle;whiteSpace=wrap;rounded=0;" parent="1" vertex="1">
          <mxGeometry x="30" y="682" width="160" height="30" as="geometry" />
        </mxCell>
        <mxCell id="bZ3s_pzUmxYfD5p0n4Xe-50" value="&lt;b&gt;OUT PLC: amarelo&lt;/b&gt;" style="text;html=1;align=center;verticalAlign=middle;whiteSpace=wrap;rounded=0;" parent="1" vertex="1">
          <mxGeometry x="17.5" y="710" width="160" height="30" as="geometry" />
        </mxCell>
        <mxCell id="bZ3s_pzUmxYfD5p0n4Xe-51" value="&lt;b&gt;+24v: Fio castanho 1mm2&lt;/b&gt;" style="text;html=1;align=center;verticalAlign=middle;whiteSpace=wrap;rounded=0;" parent="1" vertex="1">
          <mxGeometry x="30" y="740" width="160" height="30" as="geometry" />
        </mxCell>
        <mxCell id="bZ3s_pzUmxYfD5p0n4Xe-52" value="&lt;b&gt;-24v: Fio azul escuro 1mm2&lt;/b&gt;" style="text;html=1;align=center;verticalAlign=middle;whiteSpace=wrap;rounded=0;" parent="1" vertex="1">
          <mxGeometry x="20" y="770" width="160" height="30" as="geometry" />
        </mxCell>
        <mxCell id="bZ3s_pzUmxYfD5p0n4Xe-53" value="&lt;b&gt;F: castanho 2.5mm&lt;/b&gt;" style="text;html=1;align=center;verticalAlign=middle;whiteSpace=wrap;rounded=0;" parent="1" vertex="1">
          <mxGeometry x="20" y="800" width="160" height="30" as="geometry" />
        </mxCell>
        <mxCell id="bZ3s_pzUmxYfD5p0n4Xe-54" value="&lt;b&gt;N: azul claro 2.5mm&lt;/b&gt;" style="text;html=1;align=center;verticalAlign=middle;whiteSpace=wrap;rounded=0;" parent="1" vertex="1">
          <mxGeometry x="20" y="830" width="160" height="30" as="geometry" />
        </mxCell>
        <mxCell id="bZ3s_pzUmxYfD5p0n4Xe-55" value="&lt;b&gt;&lt;font style=&quot;font-size: 19px;&quot;&gt;COMANDO&lt;/font&gt;&lt;/b&gt;" style="text;html=1;align=center;verticalAlign=middle;whiteSpace=wrap;rounded=0;" parent="1" vertex="1">
          <mxGeometry x="50" y="590" width="60" height="30" as="geometry" />
        </mxCell>
        <mxCell id="bZ3s_pzUmxYfD5p0n4Xe-56" value="&lt;b&gt;&lt;font style=&quot;font-size: 19px;&quot;&gt;INTERFACE&lt;/font&gt;&lt;/b&gt;" style="text;html=1;align=center;verticalAlign=middle;whiteSpace=wrap;rounded=0;" parent="1" vertex="1">
          <mxGeometry x="30" y="900" width="130" height="30" as="geometry" />
        </mxCell>
        <mxCell id="bZ3s_pzUmxYfD5p0n4Xe-57" value="&lt;b&gt;1&lt;/b&gt;" style="ellipse;whiteSpace=wrap;html=1;aspect=fixed;strokeWidth=2;" parent="1" vertex="1">
          <mxGeometry x="30" y="950" width="30" height="30" as="geometry" />
        </mxCell>
        <mxCell id="bZ3s_pzUmxYfD5p0n4Xe-58" value="&lt;b&gt;+24VDC&lt;/b&gt;" style="text;html=1;align=center;verticalAlign=middle;whiteSpace=wrap;rounded=0;" parent="1" vertex="1">
          <mxGeometry x="60" y="950" width="60" height="30" as="geometry" />
        </mxCell>
        <mxCell id="bZ3s_pzUmxYfD5p0n4Xe-59" value="&lt;b&gt;2&lt;/b&gt;" style="ellipse;whiteSpace=wrap;html=1;aspect=fixed;strokeWidth=2;" parent="1" vertex="1">
          <mxGeometry x="30" y="990" width="30" height="30" as="geometry" />
        </mxCell>
        <mxCell id="bZ3s_pzUmxYfD5p0n4Xe-60" value="&lt;b&gt;+24VDC&lt;/b&gt;" style="text;html=1;align=center;verticalAlign=middle;whiteSpace=wrap;rounded=0;" parent="1" vertex="1">
          <mxGeometry x="60" y="990" width="60" height="30" as="geometry" />
        </mxCell>
        <mxCell id="bZ3s_pzUmxYfD5p0n4Xe-61" value="&lt;b&gt;2-19&lt;/b&gt;" style="ellipse;whiteSpace=wrap;html=1;aspect=fixed;strokeWidth=2;" parent="1" vertex="1">
          <mxGeometry x="140" y="950" width="30" height="30" as="geometry" />
        </mxCell>
        <mxCell id="bZ3s_pzUmxYfD5p0n4Xe-62" value="&lt;b&gt;Entradas&lt;/b&gt;" style="text;html=1;align=center;verticalAlign=middle;whiteSpace=wrap;rounded=0;" parent="1" vertex="1">
          <mxGeometry x="170" y="950" width="60" height="30" as="geometry" />
        </mxCell>
        <mxCell id="bZ3s_pzUmxYfD5p0n4Xe-63" value="&lt;b&gt;20-36&lt;/b&gt;" style="ellipse;whiteSpace=wrap;html=1;aspect=fixed;strokeWidth=2;" parent="1" vertex="1">
          <mxGeometry x="130" y="985" width="40" height="40" as="geometry" />
        </mxCell>
        <mxCell id="bZ3s_pzUmxYfD5p0n4Xe-64" value="&lt;b&gt;Entradas&lt;/b&gt;" style="text;html=1;align=center;verticalAlign=middle;whiteSpace=wrap;rounded=0;" parent="1" vertex="1">
          <mxGeometry x="170" y="990" width="60" height="30" as="geometry" />
        </mxCell>
        <mxCell id="bZ3s_pzUmxYfD5p0n4Xe-65" value="INTERFACE" style="rounded=1;whiteSpace=wrap;html=1;strokeWidth=2;" parent="1" vertex="1">
          <mxGeometry x="290" y="370" width="90" height="50" as="geometry" />
        </mxCell>
        <mxCell id="bZ3s_pzUmxYfD5p0n4Xe-68" value="&lt;b&gt;Variador de velocidades fora da calha e acopulado directamente ao quadro&lt;/b&gt;" style="text;html=1;align=center;verticalAlign=middle;whiteSpace=wrap;rounded=0;" parent="1" vertex="1">
          <mxGeometry x="367" y="577" width="260" height="30" as="geometry" />
        </mxCell>
      </root>
    </mxGraphModel>
  </diagram>
</mxfile>
